<svg width="149" height="40" viewBox="0 0 149 40" fill="none" xmlns="http://www.w3.org/2000/svg">
<path d="M6.44296 14.5772C5.22148 14.5772 4.12752 14.3356 3.16108 13.8524C2.20806 13.3557 1.45638 12.5839 0.906047 11.5369C0.369134 10.4765 0.100677 9.09396 0.100677 7.38926V6.98658C0.100677 5.75168 0.261751 4.69799 0.583899 3.8255C0.906047 2.9396 1.35571 2.21477 1.93289 1.65101C2.5235 1.08725 3.20135 0.67114 3.96645 0.402684C4.73155 0.134228 5.55705 0 6.44296 0C7.23491 0 7.97316 0.100671 8.65773 0.302013C9.35571 0.489933 9.97316 0.778523 10.5101 1.16778C11.047 1.55705 11.4765 2.0604 11.7987 2.67785C12.1342 3.2953 12.3289 4.02014 12.3826 4.85235H9.24162C9.09397 4.0604 8.77182 3.47651 8.27518 3.10067C7.77853 2.72483 7.16779 2.53691 6.44296 2.53691C5.8792 2.53691 5.35571 2.67785 4.87249 2.95973C4.38927 3.22819 3.9933 3.68456 3.68457 4.32886C3.38927 4.97316 3.24162 5.85906 3.24162 6.98658V7.38926C3.24162 8.27517 3.33558 9.02014 3.5235 9.62416C3.71142 10.2148 3.95974 10.6913 4.26846 11.0537C4.57719 11.4027 4.91947 11.6577 5.29531 11.8188C5.67115 11.9664 6.0537 12.0403 6.44296 12.0403C7.20806 12.0403 7.83893 11.8456 8.33558 11.4564C8.83222 11.0537 9.13424 10.4765 9.24162 9.72484H12.3826C12.3154 10.5973 12.1208 11.349 11.7987 11.9799C11.4765 12.5973 11.0537 13.1007 10.5302 13.4899C10.0067 13.8658 9.39598 14.1409 8.698 14.3154C8.00001 14.4899 7.24833 14.5772 6.44296 14.5772Z" fill="black"/>
<path d="M140.463 14.3356V8.95973L135.127 0.241601H138.651L142.033 5.89932L145.195 0.241601H148.416L143.483 8.95973V14.3356H140.463Z" fill="black"/>
<path d="M126.405 2.73825V14.3356H129.405V2.73825H133.935V0.241601H121.875V2.73825H126.405Z" fill="black"/>
<path d="M116.457 14.3356V0.241601H119.457V14.3356H116.457Z" fill="black"/>
<path d="M100.757 0.241601V14.3356H103.737V5.27516L109.959 14.3356H112.798V0.241601H109.818V9.30201L103.596 0.241601H100.757Z" fill="black"/>
<path d="M91.5667 14.5772C90.3587 14.5772 89.3117 14.3624 88.4258 13.9329C87.5399 13.5034 86.8553 12.8523 86.3721 11.9799C85.8889 11.1074 85.6472 10.0134 85.6472 8.69798V0.241601H88.6473V8.4161C88.6473 9.62416 88.8822 10.5302 89.352 11.1342C89.8218 11.7382 90.56 12.0403 91.5667 12.0403C92.5734 12.0403 93.3117 11.7382 93.7815 11.1342C94.2513 10.5302 94.4862 9.63087 94.4862 8.43623V0.241601H97.4862V8.69798C97.4862 10.0134 97.2446 11.1074 96.7614 11.9799C96.2915 12.8523 95.6137 13.5034 94.7278 13.9329C93.8419 14.3624 92.7882 14.5772 91.5667 14.5772Z" fill="black"/>
<path d="M67.9511 0.241601V14.3356H70.9511V5.37583L74.2733 11.5168H76.0652L79.4075 5.37583V14.3356H82.4277V0.241601H79.5082L75.2397 8.17449L70.9511 0.241601H67.9511Z" fill="black"/>
<path d="M50.0537 14.3356V0.241601H53.0537L57.3423 8.17449L61.6108 0.241601H64.5302V14.3356H61.5101V5.37583L58.1678 11.5168H56.3759L53.0537 5.37583V14.3356H50.0537Z" fill="black"/>
<path d="M79.0929 38.2148C79.9251 38.5638 80.9654 38.7383 82.2137 38.7383C83.4352 38.7383 84.4688 38.5638 85.3144 38.2148C86.1735 37.8658 86.8245 37.3691 87.2674 36.7248C87.7238 36.0805 87.952 35.3289 87.952 34.4698C87.952 33.7852 87.8446 33.2014 87.6298 32.7181C87.4151 32.2349 87.0996 31.8255 86.6835 31.4899C86.2674 31.141 85.7573 30.8591 85.1533 30.6443C84.5627 30.4295 83.8849 30.2483 83.1198 30.1007C82.0057 29.8859 81.1869 29.6309 80.6634 29.3356C80.1533 29.0403 79.8983 28.6309 79.8983 28.1074C79.8983 27.6779 80.0862 27.3356 80.4621 27.0805C80.8379 26.8255 81.4218 26.698 82.2137 26.698C82.9922 26.698 83.5493 26.8188 83.8849 27.0604C84.2204 27.2886 84.4419 27.6443 84.5493 28.1275H87.5493C87.4822 27.3222 87.2473 26.6242 86.8446 26.0336C86.4553 25.443 85.8782 24.9866 85.1131 24.6644C84.3614 24.3289 83.3949 24.1611 82.2137 24.1611C81.1265 24.1611 80.1802 24.3289 79.3748 24.6644C78.5694 25 77.952 25.4698 77.5225 26.0738C77.0929 26.6644 76.8782 27.3691 76.8782 28.1879C76.8782 29.0738 77.0527 29.8054 77.4016 30.3826C77.7641 30.9597 78.2876 31.4161 78.9721 31.7517C79.6567 32.0873 80.4755 32.349 81.4285 32.5369C82.2473 32.698 82.9117 32.8725 83.4218 33.0604C83.9319 33.2349 84.3077 33.4497 84.5493 33.7047C84.8043 33.9597 84.9319 34.2886 84.9319 34.6913C84.9319 35.1745 84.7171 35.5503 84.2876 35.8188C83.8715 36.0738 83.1802 36.2014 82.2137 36.2014C81.2741 36.2014 80.6097 36.0604 80.2204 35.7785C79.8446 35.4967 79.603 35.094 79.4956 34.5705H76.4755C76.5157 35.4027 76.7506 36.1342 77.1802 36.7651C77.6231 37.3826 78.2607 37.8658 79.0929 38.2148Z" fill="black"/>
<path d="M67.5401 38.4967V26.8993H63.0099V24.4027H75.0703V26.8993H70.5401V38.4967H67.5401Z" fill="black"/>
<path d="M48.7395 24.4027V38.4967H51.7193V29.4363L57.9408 38.4967H60.7797V24.4027H57.7999V33.4631L51.5784 24.4027H48.7395Z" fill="black"/>
<path d="M42.0936 38.4967V24.4027H45.0936V38.4967H42.0936Z" fill="black"/>
<path fill-rule="evenodd" clip-rule="evenodd" d="M27.7896 24.4027V38.4967H30.7896V33.3423H32.7829L35.7427 38.4967H39.2259L35.8031 33.0201C36.8232 32.698 37.5816 32.1812 38.0782 31.4698C38.5749 30.745 38.8232 29.8993 38.8232 28.9329C38.8232 28.0201 38.6219 27.2282 38.2192 26.5571C37.8165 25.8725 37.2192 25.3423 36.4272 24.9664C35.6487 24.5906 34.6688 24.4027 33.4876 24.4027H27.7896ZM32.9037 30.9665H30.7896V26.8993H32.9037C34.0178 26.8993 34.7829 27.0738 35.199 27.4228C35.6152 27.7584 35.8232 28.2618 35.8232 28.9329C35.8232 29.604 35.6152 30.1141 35.199 30.4631C34.7829 30.7987 34.0178 30.9665 32.9037 30.9665Z" fill="black"/>
<path fill-rule="evenodd" clip-rule="evenodd" d="M14.1983 38.4967V24.4027H19.6144C20.8895 24.4027 21.9432 24.5973 22.7754 24.9866C23.6076 25.3624 24.2251 25.8993 24.6278 26.5973C25.0305 27.2819 25.2318 28.094 25.2318 29.0336C25.2318 29.9732 25.0305 30.792 24.6278 31.4899C24.2251 32.1745 23.6076 32.7114 22.7754 33.1007C21.9432 33.4765 20.8895 33.6644 19.6144 33.6644H17.1983V38.4967H14.1983ZM17.1983 31.1678H19.3123C20.3862 31.1678 21.1378 30.9866 21.5674 30.6242C22.0103 30.2618 22.2318 29.7316 22.2318 29.0336C22.2318 28.349 22.0103 27.8255 21.5674 27.4631C21.1378 27.0873 20.3862 26.8993 19.3123 26.8993H17.1983V31.1678Z" fill="black"/>
<path d="M2.61745 38.2148C3.44967 38.5638 4.48993 38.7383 5.73826 38.7383C6.95973 38.7383 7.99329 38.5638 8.83893 38.2148C9.69799 37.8658 10.349 37.3691 10.7919 36.7248C11.2483 36.0805 11.4765 35.3289 11.4765 34.4698C11.4765 33.7852 11.3691 33.2014 11.1544 32.7181C10.9396 32.2349 10.6242 31.8255 10.2081 31.4899C9.79195 31.141 9.28188 30.8591 8.67785 30.6443C8.08725 30.4295 7.4094 30.2483 6.6443 30.1007C5.5302 29.8859 4.71141 29.6309 4.18792 29.3356C3.67785 29.0403 3.42282 28.6309 3.42282 28.1074C3.42282 27.6779 3.61074 27.3356 3.98658 27.0805C4.36242 26.8255 4.94631 26.698 5.73826 26.698C6.51678 26.698 7.07383 26.8188 7.4094 27.0604C7.74497 27.2886 7.96644 27.6443 8.07383 28.1275H11.0738C11.0067 27.3222 10.7718 26.6242 10.3691 26.0336C9.97987 25.443 9.40269 24.9866 8.63759 24.6644C7.88591 24.3289 6.91946 24.1611 5.73826 24.1611C4.65101 24.1611 3.7047 24.3289 2.89933 24.6644C2.09396 25 1.47651 25.4698 1.04698 26.0738C0.61745 26.6644 0.402685 27.3691 0.402685 28.1879C0.402685 29.0738 0.577181 29.8054 0.926175 30.3826C1.28859 30.9597 1.81208 31.4161 2.49664 31.7517C3.18121 32.0873 4 32.349 4.95302 32.5369C5.77181 32.698 6.43624 32.8725 6.94631 33.0604C7.45638 33.2349 7.83222 33.4497 8.07383 33.7047C8.32886 33.9597 8.45638 34.2886 8.45638 34.6913C8.45638 35.1745 8.24161 35.5503 7.81208 35.8188C7.39598 36.0738 6.7047 36.2014 5.73826 36.2014C4.79866 36.2014 4.13423 36.0604 3.74497 35.7785C3.36913 35.4967 3.12752 35.094 3.02013 34.5705H0C0.0402684 35.4027 0.275168 36.1342 0.704698 36.7651C1.14765 37.3826 1.78524 37.8658 2.61745 38.2148Z" fill="black"/>
<path fill-rule="evenodd" clip-rule="evenodd" d="M92.2148 28.4295C92.2148 25.9276 94.243 23.8993 96.745 23.8993H143.054C145.556 23.8993 147.584 25.9276 147.584 28.4295V34.4698C147.584 36.9718 145.556 39 143.054 39H96.745C94.243 39 92.2148 36.9718 92.2148 34.4698V28.4295ZM96.745 26.9195C95.911 26.9195 95.2349 27.5955 95.2349 28.4295V34.4698C95.2349 35.3038 95.911 35.9799 96.745 35.9799H143.054C143.888 35.9799 144.564 35.3038 144.564 34.4698V28.4295C144.564 27.5955 143.888 26.9195 143.054 26.9195H96.745Z" fill="black"/>
<path fill-rule="evenodd" clip-rule="evenodd" d="M15.2014 3.26174C15.2014 1.59376 16.5535 0.241601 18.2215 0.241601H42.3826C44.0505 0.241601 45.4027 1.59376 45.4027 3.26174V11.3154C45.4027 12.9834 44.0505 14.3356 42.3826 14.3356H18.2215C16.5535 14.3356 15.2014 12.9834 15.2014 11.3154V3.26174ZM18.2215 3.26174H42.3826V11.3154H18.2215V3.26174Z" fill="black"/>
</svg>
